HIERARCHY
ROOT joint_Root
{
	OFFSET 0.0 0.0 0.0
	CHANNELS 6 Xposition Yposition Zposition Zrotation Xrotation Yrotation 
	JOINT Hips
	{
		OFFSET 4.5925 91.4895 -427.239
		CHANNELS 6 Xposition Yposition Zposition Zrotation Xrotation Yrotation 
		JOINT Spine
		{
			OFFSET 15.7357 0.0 0.0
			CHANNELS 6 Xposition Yposition Zposition Zrotation Xrotation Yrotation 
			JOINT Chest
			{
				OFFSET 8.98455 -0.406207 0.0
				CHANNELS 6 Xposition Yposition Zposition Zrotation Xrotation Yrotation 
				JOINT Neck
				{
					OFFSET 16.3773 0.0 0.0
					CHANNELS 6 Xposition Yposition Zposition Zrotation Xrotation Yrotation 
					JOINT Head
					{
						OFFSET 6.45672 0.0 0.0
						CHANNELS 6 Xposition Yposition Zposition Zrotation Xrotation Yrotation 
						End Site
						{
							OFFSET 0.0 0.0 0.0
						}
					}
				}
				JOINT Shoulder_L
				{
					OFFSET 12.9942 -0.242716 4.98039
					CHANNELS 6 Xposition Yposition Zposition Zrotation Xrotation Yrotation 
					JOINT UpperArm_L
					{
						OFFSET 5.34809 0.0 0.0
						CHANNELS 6 Xposition Yposition Zposition Zrotation Xrotation Yrotation 
						JOINT LowerArm_L
						{
							OFFSET 24.3286 1.87007e-05 0.0
							CHANNELS 6 Xposition Yposition Zposition Zrotation Xrotation Yrotation 
							JOINT Hand_L
							{
								OFFSET 22.2916 0.0 0.0
								CHANNELS 6 Xposition Yposition Zposition Zrotation Xrotation Yrotation 
								End Site
								{
									OFFSET 0.0 0.0 0.0
								}
							}
						}
					}
				}
				JOINT Shoulder_R
				{
					OFFSET 12.9945 -0.242716 -4.98039
					CHANNELS 6 Xposition Yposition Zposition Zrotation Xrotation Yrotation 
					JOINT UpperArm_R
					{
						OFFSET -5.34813 0.0 0.0
						CHANNELS 6 Xposition Yposition Zposition Zrotation Xrotation Yrotation 
						JOINT LowerArm_R
						{
							OFFSET -24.3289 0.000322201 0.0
							CHANNELS 6 Xposition Yposition Zposition Zrotation Xrotation Yrotation 
							JOINT Hand_R
							{
								OFFSET -22.2915 -0.000108084 0.0
								CHANNELS 6 Xposition Yposition Zposition Zrotation Xrotation Yrotation 
								End Site
								{
									OFFSET 0.0 0.0 0.0
								}
							}
						}
					}
				}
			}
		}
		JOINT UpperLeg_L
		{
			OFFSET -2.19248 -6.46944 0.0
			CHANNELS 6 Xposition Yposition Zposition Zrotation Xrotation Yrotation 
			JOINT LowerLeg_L
			{
				OFFSET 39.0811 0.0 -1.23785e-05
				CHANNELS 6 Xposition Yposition Zposition Zrotation Xrotation Yrotation 
				JOINT Foot_L
				{
					OFFSET 40.9854 0.0 -1.26872e-05
					CHANNELS 6 Xposition Yposition Zposition Zrotation Xrotation Yrotation 
					JOINT Toes_L
					{
						OFFSET 11.7543 0.0 0.0
						CHANNELS 6 Xposition Yposition Zposition Zrotation Xrotation Yrotation 
						End Site
						{
							OFFSET 0.0 0.0 0.0
						}
					}
				}
			}
		}
		JOINT UpperLeg_R
		{
			OFFSET -2.19251 6.46944 0.0
			CHANNELS 6 Xposition Yposition Zposition Zrotation Xrotation Yrotation 
			JOINT LowerLeg_R
			{
				OFFSET -39.0811 -0.00228153 -0.0401928
				CHANNELS 6 Xposition Yposition Zposition Zrotation Xrotation Yrotation 
				JOINT Foot_R
				{
					OFFSET -40.9854 0.0 0.0
					CHANNELS 6 Xposition Yposition Zposition Zrotation Xrotation Yrotation 
					JOINT Toes_R
					{
						OFFSET -11.7543 0.0 0.0
						CHANNELS 6 Xposition Yposition Zposition Zrotation Xrotation Yrotation 
						End Site
						{
							OFFSET 0.0 0.0 0.0
						}
					}
				}
			}
		}
	}
}
MOTION
Frames:	6
Frame Time:	0.0333333
0.000000 0.000000 0.000000 0.000000 0.000000 -0.000000 126.371000 88.840400 154.677000 93.799300 -48.367700 7.440860 15.735700 0.000005 -0.000001 82.169300 81.290200 -83.637500 8.984550 -0.406207 -0.000000 9.468200 -2.381520 -2.737060 16.377300 -0.000001 -0.000001 4.915510 -17.277200 4.648790 6.456720 -0.000001 -0.000000 3.014410 -22.721200 10.654500 12.994200 -0.242716 4.980390 -90.642000 2.243430 -74.026900 5.348090 -0.000007 -0.000001 -67.904200 31.127700 -11.739300 24.328600 0.000019 0.000005 5.566050 25.754800 -12.641100 22.291600 -0.000001 0.000005 10.856100 5.212300 2.408920 12.994500 -0.242716 -4.980390 88.431700 8.651080 -79.684000 -5.348130 -0.000001 -0.000004 -63.146600 28.949800 -15.164100 -24.328900 0.000322 -0.000009 -0.276420 -0.492934 -29.183700 -22.291500 -0.000108 -0.000004 17.953200 5.459350 -4.978090 -2.192480 -6.469440 -0.000000 -177.078000 -8.759010 -16.522400 39.081100 -0.000007 -0.000012 -0.164139 0.203357 38.909000 40.985400 -0.000006 -0.000013 -2.053740 6.109900 -67.562000 11.754300 -0.000000 0.000003 -0.000132 -0.001306 -16.627400 -2.192510 6.469440 -0.000001 174.035000 -4.452070 171.005000 -39.081100 -0.002282 -0.040193 0.067432 -0.042869 56.272000 -40.985400 0.000008 0.000006 8.653180 11.708800 -64.252500 -11.754300 -0.000006 -0.000006 -0.061411 -0.336332 -30.467900
0.000000 0.000000 0.000000 0.000000 0.000000 -0.000000 125.680000 89.052200 156.936000 93.643200 -50.919400 7.622750 15.735700 0.000005 -0.000001 82.000800 81.210900 -83.464800 8.984550 -0.406207 -0.000000 9.617750 -2.455360 -2.719410 16.377300 -0.000001 -0.000001 4.684860 -16.697900 4.326140 6.456720 -0.000001 -0.000000 2.870220 -21.773000 10.245700 12.994200 -0.242716 4.980390 -90.708100 2.488040 -74.108500 5.348090 -0.000007 -0.000001 -65.977700 30.317900 -12.988300 24.328600 0.000019 0.000005 6.041170 24.241400 -14.454600 22.291600 -0.000001 0.000005 11.515200 5.220790 2.192760 12.994500 -0.242716 -4.980390 88.399300 8.862410 -79.719100 -5.348130 -0.000001 -0.000004 -63.839500 29.255500 -14.622700 -24.328900 0.000322 -0.000009 -0.123829 -0.242727 -26.831500 -22.291500 -0.000108 -0.000004 17.462500 5.454500 -4.801040 -2.192480 -6.469440 -0.000000 -177.305000 -10.400700 -14.169800 39.081100 -0.000007 -0.000012 -0.176614 0.221472 38.571200 40.985400 -0.000006 -0.000013 -1.546010 5.088760 -69.310000 11.754300 -0.000000 0.000003 -0.000192 -0.001785 -16.645000 -2.192510 6.469440 -0.000001 173.261000 -3.698320 166.930000 -39.081100 -0.002282 -0.040193 0.112014 -0.057792 62.029700 -40.985400 0.000008 0.000006 1.606270 10.138900 -57.631000 -11.754300 -0.000006 -0.000006 -0.025877 -0.197906 -24.671800
0.000000 0.000000 0.000000 0.000000 0.000000 -0.000000 124.939000 89.267000 158.886000 93.417000 -53.289200 7.346030 15.735700 0.000005 -0.000001 81.427200 81.219600 -82.843600 8.984550 -0.406207 -0.000000 9.574990 -2.624720 -2.611070 16.377300 -0.000001 -0.000001 4.273610 -16.018500 3.937030 6.456720 -0.000001 -0.000000 2.579800 -20.696700 9.912310 12.994200 -0.242716 4.980390 -90.783800 2.773360 -74.211300 5.348090 -0.000007 -0.000001 -63.633400 29.620600 -14.338300 24.328600 0.000019 0.000005 6.665320 22.658200 -16.876100 22.291600 -0.000001 0.000005 12.543500 5.232490 1.891940 12.994500 -0.242716 -4.980390 88.372800 9.023120 -79.733100 -5.348130 -0.000001 -0.000004 -64.487100 29.722900 -13.766200 -24.328900 0.000322 -0.000009 0.141681 0.304551 -25.140400 -22.291500 -0.000108 -0.000004 16.656700 5.448320 -4.574840 -2.192480 -6.469440 -0.000000 -177.426000 -12.134200 -12.197900 39.081100 -0.000007 -0.000012 -0.180406 0.232539 37.805000 40.985400 -0.000006 -0.000013 -1.183620 4.312300 -70.638700 11.754300 -0.000000 0.000003 -0.000225 -0.002044 -16.654400 -2.192510 6.469440 -0.000001 173.456000 -0.721384 163.737000 -39.081100 -0.002282 -0.040193 0.137477 -0.061449 65.415900 -40.985400 0.000008 0.000006 2.101890 4.552890 -57.585700 -11.754300 -0.000006 -0.000006 -0.017889 -0.155302 -22.914400
0.000000 0.000000 0.000000 0.000000 0.000000 -0.000000 124.192000 89.520500 160.569000 92.704600 -55.445900 6.445900 15.735700 0.000005 -0.000001 80.713300 81.275300 -81.963900 8.984550 -0.406207 -0.000000 9.433440 -2.818030 -2.267060 16.377300 -0.000001 -0.000001 3.794450 -15.447400 3.596400 6.456720 -0.000001 -0.000000 2.307040 -19.648700 9.774790 12.994200 -0.242716 4.980390 -90.814400 2.891940 -74.265500 5.348090 -0.000007 -0.000001 -61.372900 28.918100 -15.892900 24.328600 0.000019 0.000005 7.078110 21.041900 -19.077400 22.291600 -0.000001 0.000005 13.631200 5.244000 1.591490 12.994500 -0.242716 -4.980390 88.341400 9.119810 -79.646600 -5.348130 -0.000001 -0.000004 -65.099200 30.305300 -12.561300 -24.328900 0.000322 -0.000009 0.437248 0.986712 -23.958600 -22.291500 -0.000108 -0.000004 16.009200 5.436960 -4.179460 -2.192480 -6.469440 -0.000000 -177.211000 -14.080600 -10.450700 39.081100 -0.000007 -0.000012 -0.182365 0.244832 36.681300 40.985400 -0.000006 -0.000013 -0.835588 3.977110 -71.587700 11.754300 -0.000000 0.000003 -0.000255 -0.002268 -16.662500 -2.192510 6.469440 -0.000001 174.616000 3.198220 161.048000 -39.081100 -0.002282 -0.040193 0.130916 -0.057631 65.720100 -40.985400 0.000008 0.000006 4.498710 -1.385410 -59.182300 -11.754300 -0.000006 -0.000006 -0.016281 -0.145737 -22.521300
0.000000 0.000000 0.000000 0.000000 0.000000 -0.000000 123.417000 89.783500 162.066000 91.698500 -57.411100 5.211040 15.735700 0.000005 -0.000001 79.950800 81.331700 -80.977600 8.984550 -0.406207 -0.000000 9.287650 -3.021950 -1.806790 16.377300 -0.000001 -0.000001 3.490170 -14.906700 3.411690 6.456720 -0.000001 -0.000000 1.991780 -18.764600 9.750610 12.994200 -0.242716 4.980390 -90.762200 2.740790 -74.451900 5.348090 -0.000007 -0.000001 -59.785100 27.579100 -17.402000 24.328600 0.000019 0.000005 7.436240 20.040100 -20.851600 22.291600 -0.000001 0.000005 14.484300 5.248390 1.475400 12.994500 -0.242716 -4.980390 88.325300 9.121150 -79.550000 -5.348130 -0.000001 -0.000004 -65.750600 30.557400 -11.125500 -24.328900 0.000322 -0.000009 0.661631 1.556870 -23.063500 -22.291500 -0.000108 -0.000004 15.402100 5.437550 -4.199380 -2.192480 -6.469440 -0.000000 -176.874000 -15.576000 -8.769070 39.081100 -0.000007 -0.000012 -0.183585 0.259275 35.301500 40.985400 -0.000006 -0.000013 -0.689590 3.430220 -72.291300 11.754300 -0.000000 0.000003 -0.000267 -0.002358 -16.665800 -2.192510 6.469440 -0.000001 176.435000 6.938240 159.077000 -39.081100 -0.002282 -0.040193 0.107351 -0.052929 63.065000 -40.985400 0.000008 0.000006 5.944320 -4.172760 -61.008600 -11.754300 -0.000006 -0.000006 -0.014850 -0.136868 -22.157100
0.000000 0.000000 0.000000 0.000000 0.000000 -0.000000 122.645000 89.959200 163.410000 90.799100 -59.464600 3.853980 15.735700 0.000005 -0.000001 79.448500 81.416200 -80.286200 8.984550 -0.406207 -0.000000 9.098820 -3.136610 -1.424780 16.377300 -0.000001 -0.000001 3.104750 -14.443500 3.302160 6.456720 -0.000001 -0.000000 1.724530 -17.945500 9.750070 12.994200 -0.242716 4.980390 -90.676700 2.466350 -74.651800 5.348090 -0.000007 -0.000001 -58.576600 25.854000 -18.902200 24.328600 0.000019 0.000005 7.698950 19.290900 -22.254800 22.291600 -0.000001 0.000005 14.721600 5.254470 1.314230 12.994500 -0.242716 -4.980390 88.311700 9.104030 -79.448000 -5.348130 -0.000001 -0.000004 -66.349300 30.577300 -9.790170 -24.328900 0.000322 -0.000009 0.899423 2.190760 -22.352200 -22.291500 -0.000108 -0.000004 14.982500 5.429700 -3.928820 -2.192480 -6.469440 -0.000000 -176.672000 -17.161800 -7.429320 39.081100 -0.000007 -0.000012 -0.177864 0.263202 34.050000 40.985400 -0.000006 -0.000013 -0.617522 2.873700 -72.963100 11.754300 -0.000000 0.000003 -0.000289 -0.002524 -16.671700 -2.192510 6.469440 -0.000001 178.606000 9.702800 157.495000 -39.081100 -0.002282 -0.040193 0.077874 -0.046300 58.196100 -40.985400 0.000008 0.000006 5.556380 -3.406710 -62.632900 -11.754300 -0.000006 -0.000006 -0.014937 -0.137423 -22.179800
